<svg width="40" height="40" viewBox="0 0 40 40" fill="none" xmlns="http://www.w3.org/2000/svg">
<path d="M18.75 25H11.25C10.2554 25 9.30161 25.3951 8.59835 26.0983C7.89509 26.8016 7.5 27.7554 7.5 28.75V31.25H10V28.75C10 28.4185 10.1317 28.1005 10.3661 27.8661C10.6005 27.6317 10.9185 27.5 11.25 27.5H18.75C19.0815 27.5 19.3995 27.6317 19.6339 27.8661C19.8683 28.1005 20 28.4185 20 28.75V31.25H22.5V28.75C22.5 27.7554 22.1049 26.8016 21.4017 26.0983C20.6984 25.3951 19.7446 25 18.75 25Z" fill="white"/>
<path d="M15 23.75C15.9889 23.75 16.9556 23.4568 17.7779 22.9074C18.6001 22.3579 19.241 21.577 19.6194 20.6634C19.9978 19.7498 20.0969 18.7445 19.9039 17.7746C19.711 16.8046 19.2348 15.9137 18.5355 15.2145C17.8363 14.5152 16.9454 14.039 15.9755 13.8461C15.0055 13.6531 14.0002 13.7522 13.0866 14.1306C12.173 14.509 11.3921 15.1499 10.8427 15.9722C10.2932 16.7944 10 17.7611 10 18.75C10 20.0761 10.5268 21.3479 11.4645 22.2855C12.4021 23.2232 13.6739 23.75 15 23.75ZM15 16.25C15.4945 16.25 15.9778 16.3966 16.3889 16.6713C16.8 16.946 17.1205 17.3365 17.3097 17.7933C17.4989 18.2501 17.5484 18.7528 17.452 19.2377C17.3555 19.7227 17.1174 20.1681 16.7678 20.5178C16.4181 20.8674 15.9727 21.1055 15.4877 21.202C15.0028 21.2984 14.5001 21.2489 14.0433 21.0597C13.5865 20.8705 13.196 20.5501 12.9213 20.1389C12.6466 19.7278 12.5 19.2445 12.5 18.75C12.5 18.087 12.7634 17.4511 13.2322 16.9822C13.7011 16.5134 14.337 16.25 15 16.25Z" fill="white"/>
<path d="M35 23.75V35H5V10H20V7.5H5C4.33696 7.5 3.70107 7.76339 3.23223 8.23223C2.76339 8.70107 2.5 9.33696 2.5 10V35C2.5 35.663 2.76339 36.2989 3.23223 36.7678C3.70107 37.2366 4.33696 37.5 5 37.5H35C35.663 37.5 36.2989 37.2366 36.7678 36.7678C37.2366 36.2989 37.5 35.663 37.5 35V23.75H35Z" fill="white"/>
<path d="M32.5 23.75H25V26.25H32.5V23.75Z" fill="white"/>
<path d="M32.5 28.75H27.5V31.25H32.5V28.75Z" fill="white"/>
<path d="M40 12.5V10H37.3736C37.2124 9.21758 36.9018 8.4736 36.4587 7.80888L38.3212 5.94638L36.5538 4.17888L34.6912 6.04137C34.0265 5.59826 33.2825 5.28758 32.5 5.12637V2.5H30V5.12637C29.2176 5.28756 28.4736 5.59819 27.8089 6.04125L25.9464 4.17875L24.1789 5.94625L26.0414 7.80875C25.5983 8.47351 25.2876 9.21752 25.1264 10H22.5V12.5H25.1264C25.2876 13.2824 25.5982 14.0264 26.0413 14.6911L24.1788 16.5536L25.9462 18.3211L27.8087 16.4586C28.4735 16.9017 29.2175 17.2124 30 17.3736V20H32.5V17.3736C33.2824 17.2124 34.0264 16.9018 34.6911 16.4587L36.5536 18.3212L38.3211 16.5538L36.4586 14.6912C36.9017 14.0265 37.2124 13.2825 37.3736 12.5H40ZM31.25 15C30.5083 15 29.7833 14.7801 29.1666 14.368C28.5499 13.956 28.0693 13.3703 27.7855 12.6851C27.5016 11.9998 27.4274 11.2458 27.5721 10.5184C27.7167 9.79098 28.0739 9.1228 28.5983 8.59835C29.1228 8.0739 29.791 7.71675 30.5184 7.57206C31.2458 7.42736 31.9998 7.50162 32.6851 7.78545C33.3703 8.06928 33.956 8.54993 34.368 9.16661C34.7801 9.7833 35 10.5083 35 11.25C34.9989 12.2442 34.6035 13.1974 33.9004 13.9004C33.1974 14.6035 32.2442 14.9989 31.25 15Z" fill="white"/>
</svg>
