<svg width="43" height="43" viewBox="0 0 43 43" fill="none" xmlns="http://www.w3.org/2000/svg">
<path d="M23.4705 0H18.0174L17.8159 2.4014L23.9949 6.24472L23.4705 0Z" fill="white"/>
<path d="M25.0076 18.2972L24.246 9.22925L17.8605 14.9571L25.0076 18.2972Z" fill="white"/>
<path d="M17.6822 3.99402L16.8442 13.9669L23.7529 7.76999L17.6822 3.99402Z" fill="white"/>
<path d="M38.6418 14.0094L37.2667 14.6626L37.132 19.2579L40.3748 16.9869L38.6418 14.0094Z" fill="white"/>
<path d="M4.745 37.538C5.82642 37.8556 6.57107 38.3717 7.13082 38.7598C7.47271 38.997 7.69067 39.1477 7.9308 39.236V30.4797H8.84802V29.5978H18.2338V30.4797H19.151V38.7311C19.1648 38.7407 19.1789 38.7506 19.1925 38.7598C19.8174 39.1934 20.028 39.3396 20.7178 39.3396C21.4078 39.3396 21.6182 39.1936 22.2431 38.76C22.2735 38.7388 22.305 38.7172 22.3368 38.6951V30.4797H23.2541V29.5978H32.5893V30.4797H33.5065V39.236C33.7465 39.1475 33.9645 38.997 34.3062 38.76C34.866 38.3717 35.6108 37.8558 36.6922 37.5377V30.4797H37.6095V27.064H36.6665V23.1359H31.5947L35.5822 20.3434L30.4255 18.6773L30.8278 23.1359H29.922L29.4907 18.3555L26.8476 19.6106H24.445L16.6758 15.9799L16.3707 19.6106H14.0888V15.9799H8.44139V23.136H4.82145V27.0641H3.82788V30.4798H4.7451L4.745 37.538Z" fill="white"/>
<path d="M36.3545 15.0957L30.6431 17.8078L36.2222 19.6105L36.3545 15.0957Z" fill="white"/>
<path d="M32.7805 40.9082C31.5998 40.9082 31.0529 40.5291 30.3607 40.0489C29.5693 39.4998 28.5841 38.8165 26.7489 38.8165C24.9139 38.8165 23.9289 39.4998 23.1373 40.0489C22.4451 40.5291 21.8983 40.9082 20.7178 40.9082C19.5373 40.9082 18.9906 40.5291 18.2984 40.0489C17.5069 39.4998 16.5218 38.8165 14.6869 38.8165C12.8519 38.8165 11.8669 39.4998 11.0754 40.0489C10.3832 40.5291 9.83657 40.9082 8.65621 40.9082C7.47564 40.9082 6.92897 40.5291 6.23682 40.0489C5.44531 39.4998 4.46021 38.8165 2.62524 38.8165V40.9082C3.80581 40.9082 4.35249 41.2876 5.04464 41.7676C5.83615 42.3167 6.82124 43 8.65621 43C10.4911 43 11.4762 42.3167 12.2677 41.7676C12.9598 41.2876 13.5065 40.9082 14.687 40.9082C15.8675 40.9082 16.4142 41.2876 17.1064 41.7676C17.8979 42.3167 18.883 43 20.718 43C22.553 43 23.538 42.3167 24.3298 41.7676C25.0219 41.2876 25.5687 40.9082 26.7492 40.9082C27.93 40.9082 28.4768 41.2876 29.169 41.7676C29.9605 42.3167 30.9457 43 32.7808 43C34.6159 43 35.601 42.3167 36.3925 41.7676C37.0847 41.2876 37.6316 40.9082 38.8123 40.9082V38.8165C36.9772 38.8165 35.9921 39.4998 35.2005 40.0489C34.5079 40.5291 33.9612 40.9082 32.7805 40.9082Z" fill="white"/>
</svg>
