<svg width="36" height="36" viewBox="0 0 36 36" fill="none" xmlns="http://www.w3.org/2000/svg">
<g clip-path="url(#clip0_102_25)">
<path d="M24.7139 33.9361H0.679466C0.304231 33.9361 0 33.6319 0 33.2567V2.74319C0 2.36795 0.304231 2.06372 0.679466 2.06372H24.7139C25.0891 2.06372 25.3934 2.36795 25.3934 2.74319V10.1303L32.0992 3.42452C32.3647 3.15919 32.7948 3.15919 33.0601 3.42452L35.8011 6.16549C36.0664 6.43099 36.0664 6.86109 35.8011 7.12642L25.3934 17.534V33.2567C25.3934 33.6319 25.0891 33.9361 24.7139 33.9361ZM1.35893 32.5772H24.0344V18.895L20.7538 22.1758C20.6665 22.2631 20.5569 22.3249 20.437 22.3548L16.791 23.26C16.7368 23.2734 16.6818 23.2801 16.6272 23.2801C16.6265 23.2801 16.626 23.2801 16.6254 23.2801C16.4473 23.2801 16.2739 23.2101 16.1448 23.0811C15.9763 22.9126 15.9083 22.6682 15.9658 22.437L16.871 18.791C16.9007 18.6711 16.9627 18.5617 17.05 18.4742L24.0346 11.4898V3.42265H1.35893V32.5772ZM18.1462 19.3013L17.5586 21.6687L19.9243 21.0813L34.3596 6.64604L32.5796 4.86601L25.2237 12.2219C25.2143 12.2326 25.2045 12.2431 25.1944 12.2532L18.1462 19.3013ZM20.3983 30.2621H4.26467C3.88944 30.2621 3.5852 29.9579 3.5852 29.5826C3.5852 29.2074 3.88944 28.9032 4.26467 28.9032H20.3983C20.7735 28.9032 21.0777 29.2074 21.0777 29.5826C21.0777 29.9579 20.7735 30.2621 20.3983 30.2621ZM20.3983 26.4031H4.26467C3.88944 26.4031 3.5852 26.0988 3.5852 25.7236C3.5852 25.3484 3.88944 25.0441 4.26467 25.0441H20.3983C20.7735 25.0441 21.0777 25.3484 21.0777 25.7236C21.0777 26.0988 20.7735 26.4031 20.3983 26.4031ZM14.2498 18.6848H4.26467C3.88944 18.6848 3.5852 18.3806 3.5852 18.0054C3.5852 17.6301 3.88944 17.3259 4.26467 17.3259H14.2498C14.625 17.3259 14.9292 17.6301 14.9292 18.0054C14.9292 18.3806 14.625 18.6848 14.2498 18.6848ZM17.7604 14.8256H4.26467C3.88944 14.8256 3.5852 14.5214 3.5852 14.1462C3.5852 13.7709 3.88944 13.4667 4.26467 13.4667H17.7604C18.1356 13.4667 18.4399 13.7709 18.4399 14.1462C18.4399 14.5214 18.1356 14.8256 17.7604 14.8256ZM20.3983 7.10757H4.26467C3.88944 7.10757 3.5852 6.80334 3.5852 6.4281C3.5852 6.05287 3.88944 5.74864 4.26467 5.74864H20.3983C20.7735 5.74864 21.0777 6.05287 21.0777 6.4281C21.0777 6.80334 20.7735 7.10757 20.3983 7.10757Z" fill="white"/>
</g>
<defs>
<clipPath id="clip0_102_25">
<rect width="36" height="36" fill="white"/>
</clipPath>
</defs>
</svg>
