<svg width="42" height="42" viewBox="0 0 42 42" fill="none" xmlns="http://www.w3.org/2000/svg">
<g clip-path="url(#clip0_102_84)">
<path d="M20.297 10.1215C18.7956 10.6191 17.4916 12.6524 16.728 15.4578H20.297V10.1215Z" fill="white"/>
<path d="M10.0276 16.899C9.62437 17.9629 9.39273 19.1039 9.3241 20.2707H14.6261C14.6604 19.1039 14.7634 17.9715 14.9607 16.899H10.0276Z" fill="white"/>
<path d="M16.0331 20.2622H20.2713V16.8905H16.402C16.1961 17.9629 16.0674 19.0954 16.0331 20.2622Z" fill="white"/>
<path d="M16.3934 25.0666H20.2627V21.6949H16.0245C16.0674 22.8703 16.1961 24.0028 16.3934 25.0666Z" fill="white"/>
<path d="M20.297 31.8786V26.5422H16.728C17.5002 29.3391 18.7956 31.3724 20.297 31.8786Z" fill="white"/>
<path d="M21.7041 20.2622H25.9423C25.908 19.0954 25.805 17.9629 25.6077 16.8905H21.7041V20.2622Z" fill="white"/>
<path d="M9.3241 21.7378C9.39273 22.9046 9.62437 24.037 10.0276 25.1095H14.935C14.7376 24.0456 14.6347 22.9046 14.6004 21.7378H9.3241Z" fill="white"/>
<path d="M21.7041 10.1215V15.4578H25.2731C24.501 12.6609 23.2055 10.6276 21.7041 10.1215Z" fill="white"/>
<path d="M26.7401 26.5079C26.0709 29.1418 24.9385 31.2437 23.54 32.4105C26.9117 31.6727 29.7086 29.4764 31.3129 26.5079H26.7401Z" fill="white"/>
<path d="M15.261 15.492C15.9302 12.8582 17.0627 10.7563 18.4611 9.58948C15.0894 10.3273 12.2582 12.5236 10.6882 15.492H15.261Z" fill="white"/>
<path d="M26.7401 15.492H31.3129C29.7429 12.5236 26.9117 10.3187 23.5743 9.58948C24.9728 10.7219 26.1052 12.8239 26.7401 15.492Z" fill="white"/>
<path d="M21.7041 31.8786C23.2055 31.381 24.5095 29.3477 25.2731 26.5422H21.7041V31.8786Z" fill="white"/>
<path d="M15.261 26.5079H10.6882C12.2582 29.4764 15.0894 31.6469 18.4611 32.4105C17.0283 31.278 15.8959 29.1761 15.261 26.5079Z" fill="white"/>
<path d="M31.9735 16.9333H27.0404C27.2377 17.9972 27.3407 19.1382 27.375 20.305H32.677C32.6084 19.1297 32.3767 17.9972 31.9735 16.9333Z" fill="white"/>
<path d="M25.9679 21.7035H21.6954V25.0752H25.5647C25.8049 24.0371 25.9079 22.9046 25.9679 21.7035Z" fill="white"/>
<path d="M27.0404 25.1009H31.9735C32.3767 24.0371 32.6084 22.896 32.677 21.7292H27.375C27.3407 22.9046 27.2377 24.0371 27.0404 25.1009Z" fill="white"/>
<path d="M19.3533 3.36094L20.2627 2.45154V7.11868C20.2627 7.52191 20.5973 7.82218 20.9662 7.82218C21.3695 7.82218 21.6698 7.48759 21.6698 7.11868V2.45154L22.6049 3.38668C22.9481 3.72985 23.6173 3.63548 23.7717 3.10356C23.8489 2.83761 23.7631 2.54591 23.5658 2.34859L21.4038 0.1866C21.155 -0.0622 20.7518 -0.0622 20.503 0.1866L18.341 2.34859C18.0664 2.62312 18.0579 3.07783 18.3324 3.36094C18.6155 3.64406 19.0702 3.64406 19.3533 3.36094Z" fill="white"/>
<path d="M6.63872 10.4132C7.04195 10.4218 7.36796 10.0957 7.36796 9.69252V8.40562L10.671 11.7087C10.9541 11.9918 11.4002 11.966 11.6576 11.7087C11.9407 11.4255 11.915 10.9794 11.6576 10.722L8.35458 7.419H9.67579C10.1562 7.419 10.5595 6.87851 10.3021 6.38949C10.1734 6.14069 9.90743 6.00342 9.62432 6.00342H6.5615C6.20975 6.00342 5.92664 6.28654 5.92664 6.63829V9.69252C5.92664 10.0872 6.24407 10.4046 6.63872 10.4132Z" fill="white"/>
<path d="M2.45203 21.7378H7.11917C7.5224 21.7378 7.82267 21.4032 7.82267 21.0343C7.82267 20.631 7.48808 20.3308 7.11917 20.3308H2.45203L3.38717 19.3956C3.73034 19.0525 3.63597 18.3833 3.10405 18.2288C2.83809 18.1516 2.5464 18.2374 2.34907 18.4347L0.187088 20.5967C-0.0617117 20.8455 -0.0617117 21.2488 0.187088 21.4976L2.34907 23.6595C2.62361 23.9341 3.07831 23.9427 3.36143 23.6681C3.65313 23.385 3.65313 22.9303 3.37001 22.6386L2.45203 21.7378Z" fill="white"/>
<path d="M10.714 30.3429L7.41095 33.6459V32.3247C7.41095 31.8443 6.87045 31.4411 6.38143 31.6984C6.13263 31.8271 5.99536 32.0931 5.99536 32.3762V35.439C5.99536 35.7908 6.27848 36.0739 6.63023 36.0739H9.68446C10.0791 36.0739 10.3965 35.7564 10.4051 35.3704C10.4137 34.9672 10.0877 34.6411 9.68446 34.6411H8.39757L11.7006 31.3381C11.9837 31.055 11.958 30.6089 11.7006 30.3515C11.4261 30.0598 10.9799 30.0769 10.714 30.3429Z" fill="white"/>
<path d="M22.6478 38.6391L21.7384 39.5485V34.8814C21.7384 34.4781 21.4038 34.1779 21.0349 34.1779C20.6317 34.1779 20.3314 34.5125 20.3314 34.8814V39.5485L19.3962 38.6134C19.0531 38.2702 18.3839 38.3646 18.2295 38.8965C18.1522 39.1624 18.238 39.4541 18.4354 39.6515L20.5973 41.8134C20.8461 42.0622 21.2494 42.0622 21.4982 41.8134L23.6602 39.6515C23.9347 39.3769 23.9433 38.9222 23.6687 38.6391C23.3856 38.356 22.9309 38.356 22.6478 38.6391Z" fill="white"/>
<path d="M35.3623 31.5869C34.9591 31.5783 34.6331 31.9043 34.6331 32.3076V33.5945L31.33 30.2914C31.0469 30.0083 30.6008 30.034 30.3434 30.2914C30.0603 30.5745 30.086 31.0207 30.3434 31.278L33.6465 34.5811H32.3252C31.8448 34.5811 31.4416 35.1216 31.699 35.6106C31.8276 35.8594 32.0936 35.9967 32.3767 35.9967H35.4395C35.7913 35.9967 36.0744 35.7135 36.0744 35.3618V32.3076C36.0744 31.9129 35.757 31.5955 35.3623 31.5869Z" fill="white"/>
<path d="M41.814 20.5024L39.652 18.3404C39.3774 18.0658 38.9227 18.0573 38.6396 18.3318C38.3479 18.6149 38.3479 19.0696 38.631 19.3613L39.5404 20.2707H34.8733C34.4701 20.2707 34.1698 20.6053 34.1698 20.9742C34.1698 21.3774 34.5044 21.6777 34.8733 21.6777H39.5404L38.6053 22.6129C38.2621 22.956 38.3565 23.6252 38.8884 23.7797C39.1544 23.8569 39.4461 23.7711 39.6434 23.5737L41.8054 21.4118C42.0628 21.1544 42.0628 20.7512 41.814 20.5024Z" fill="white"/>
<path d="M31.2871 11.6571L34.5901 8.35409V9.67531C34.5901 10.1557 35.1306 10.559 35.6196 10.3016C35.8684 10.1729 36.0057 9.90695 36.0057 9.62383V6.56102C36.0057 6.20926 35.7226 5.92615 35.3708 5.92615H32.3166C31.9219 5.92615 31.6045 6.24358 31.5959 6.62965C31.5874 7.03288 31.9134 7.35889 32.3166 7.35889H33.6035L30.3005 10.6619C30.0173 10.945 30.0431 11.3912 30.3005 11.6485C30.575 11.9402 31.0211 11.9231 31.2871 11.6571Z" fill="white"/>
</g>
<defs>
<clipPath id="clip0_102_84">
<rect width="42" height="42" fill="white"/>
</clipPath>
</defs>
</svg>
