<svg width="26" height="26" viewBox="0 0 26 26" fill="none" xmlns="http://www.w3.org/2000/svg">
<path d="M13 0C5.82028 0 0 5.82028 0 13C0 20.1797 5.82028 26 13 26C20.1797 26 26 20.1797 26 13C26 5.82028 20.1797 0 13 0ZM8.12902 21.8017H4.47439V10.043H8.12902V21.8017ZM6.30251 8.4357C5.13111 8.4357 4.18287 7.48614 4.18287 6.31634C4.18314 5.1476 5.13111 4.19804 6.30251 4.19804C7.47071 4.19804 8.42028 5.1476 8.42028 6.31634C8.42028 7.4864 7.47044 8.4357 6.30251 8.4357ZM21.8169 21.8017H18.1652V16.0833C18.1652 14.7196 18.1399 12.9657 16.2655 12.9657C14.3648 12.9657 14.0725 14.4509 14.0725 15.9846V21.8014H10.421V10.043H13.9262V11.6499H13.9754C14.4634 10.7253 15.6551 9.75073 17.4332 9.75073C21.1338 9.75073 21.8169 12.1861 21.8169 15.3521V21.8017Z" fill="white"/>
</svg>
